<?xml version="1.0" encoding="iso-8859-1"?>
<!-- Uploaded to: SVG Repo, www.svgrepo.com, Generator: SVG Repo Mixer Tools -->
<!DOCTYPE svg PUBLIC "-//W3C//DTD SVG 1.1//EN" "http://www.w3.org/Graphics/SVG/1.1/DTD/svg11.dtd">
<svg fill="#000000" version="1.1" id="Capa_1" xmlns="http://www.w3.org/2000/svg" xmlns:xlink="http://www.w3.org/1999/xlink" 
	 width="30px" height="30px" viewBox="0 0 469.059 469.059"
	 xml:space="preserve">
<g>
	<path d="M454.724,260.068c-3.727-17.853-9.661-33.847-19.051-36.459c-22.687-6.302-87.61-36.408-87.61-36.408v0.068
		c-24.498-55.673-68.655-74.226-121.602-79.565c20.226,12.389,36.604,28.427,43.701,49.153c11.057,32.288-2.04,69.02-38.892,109.162
		c-5.236,5.719-11.185,10.992-19.162,10.992c-5.424,0-10.545-2.62-13.684-7.013c-5.26-7.354-3.374-16.046-0.549-24.357
		c4.677-13.773,8.346-32.864-0.777-45.606c-6.947-9.696-21.502-15.687-42.503-17.603c-0.008,25.736-0.038,75.736-0.134,105.143
		c-0.062,17.81-1.435,31.739-4.189,42.215h141.442c0-5.322,0.665-10.459,1.815-15.429c6.119-26.449,27.583-46.947,54.533-51.684
		c3.855-0.678,7.794-1.099,11.842-1.099c2.156,0,4.28,0.133,6.38,0.325c29.482,2.733,53.479,24.245,60.003,52.457
		c1.15,4.953,1.819,10.106,1.819,15.413h1.447c12.703,0,23.88-6.096,31.117-15.413h0.208c0,0,0-0.088-0.008-0.261
		c5.062-6.636,8.188-14.823,8.188-23.816C469.059,278.086,463.417,267.306,454.724,260.068z"/>
	<path d="M367.647,277.918c-2.536-0.377-5.105-0.638-7.742-0.638c-4.071,0-8.027,0.514-11.842,1.403
		c-18.242,4.231-32.885,17.94-38.335,35.678c-1.495,4.877-2.312,10.059-2.312,15.413c0,28.953,23.548,52.505,52.505,52.505
		c28.95,0,52.502-23.552,52.502-52.505c0-5.354-0.813-10.536-2.316-15.413C404.223,295.318,387.781,280.907,367.647,277.918z
		 M359.905,358.459c-15.838,0-28.686-12.84-28.686-28.685c0-5.691,1.707-10.957,4.568-15.413c2.958-4.645,7.222-8.34,12.275-10.647
		c3.614-1.647,7.61-2.621,11.842-2.621c3.105,0,6.027,0.621,8.832,1.526c6.348,2.076,11.746,6.208,15.289,11.742
		c2.857,4.456,4.561,9.738,4.561,15.413C388.594,345.619,375.747,358.459,359.905,358.459z"/>
	<path d="M212.73,250.695c-2.38,6.981-2.561,10.616-0.629,10.616c1.415,0,3.957-1.932,7.598-5.903
		c76.275-83.076,25.441-127.062-32.885-149.609c-25.411-9.82-52.235-15.589-70.603-18.717c-1.229-0.202-2.427-0.303-3.597-0.303
		c-10.904,0-19.296,8.683-19.296,20.212v50.982v81.012c-3.378-1.238-6.889-2.191-10.472-2.917c-4.336-0.872-8.802-1.383-13.4-1.383
		C31.087,234.686,0,265.783,0,304.135c0,38.351,31.095,69.444,69.447,69.444c28.092,0,52.272-16.699,63.201-40.703
		c5.29-11.63,6.06-32.589,6.097-45.36c0.024-7.481,0.05-16.314,0.066-25.72c0.068-41.962,0.068-95.746,0.068-95.746
		C228.62,166.057,223.226,219.826,212.73,250.695z"/>
</g>
</svg>